{"asset":{"copyright":"Copyright 2020 Trimble Inc. All Rights Reserved.","generator":"SketchUp GLTF Exporter","version":"2.0"},"accessors":[{"bufferView":1,"componentType":5126,"count":6,"type":"VEC2"},{"bufferView":2,"componentType":5123,"count":6,"type":"SCALAR"},{"bufferView":3,"componentType":5126,"count":6,"type":"VEC3","max":[3411.573974609375,3222.724365234375,0.0],"min":[-3411.60888671875,-3222.71875,0.0]},{"bufferView":4,"componentType":5126,"count":6,"type":"VEC3","max":[-0.0,-0.0,1.0],"min":[-0.0,-0.0,1.0]},{"bufferView":5,"componentType":5123,"count":36,"type":"SCALAR"},{"bufferView":6,"componentType":5126,"count":36,"type":"VEC3","max":[18.67959976196289,31.32670021057129,-39.370079040527347],"min":[0.0,0.0,-39.370079040527347]},{"bufferView":7,"componentType":5126,"count":36,"type":"VEC3","max":[0.0,0.0,-1.0],"min":[0.0,0.0,-1.0]},{"bufferView":8,"componentType":5123,"count":36,"type":"SCALAR"},{"bufferView":9,"componentType":5126,"count":36,"type":"VEC3","max":[18.67959976196289,31.32670021057129,78.74015808105469],"min":[0.0,0.0,78.74015808105469]},{"bufferView":10,"componentType":5126,"count":36,"type":"VEC3","max":[0.0,0.0,1.0],"min":[0.0,0.0,1.0]},{"bufferView":11,"componentType":5123,"count":6,"type":"SCALAR"},{"bufferView":12,"componentType":5126,"count":6,"type":"VEC3","max":[15.822099685668946,2.169600009918213,78.74015808105469],"min":[8.519599914550782,0.0,-39.370079040527347]},{"bufferView":13,"componentType":5126,"count":6,"type":"VEC3","max":[0.2847997844219208,-0.9585870504379273,0.0],"min":[0.2847997844219208,-0.9585870504379273,0.0]},{"bufferView":14,"componentType":5123,"count":6,"type":"SCALAR"},{"bufferView":15,"componentType":5126,"count":6,"type":"VEC3","max":[8.519599914550782,26.88170051574707,78.74015808105469],"min":[0.0,0.0,-39.370079040527347]},{"bufferView":16,"componentType":5126,"count":6,"type":"VEC3","max":[-0.9532701373100281,-0.30211928486824038,0.0],"min":[-0.9532701373100281,-0.30211928486824038,0.0]},{"bufferView":17,"componentType":5123,"count":6,"type":"SCALAR"},{"bufferView":18,"componentType":5126,"count":6,"type":"VEC3","max":[14.44629955291748,31.32670021057129,78.74015808105469],"min":[0.0,26.88170051574707,-39.370079040527347]},{"bufferView":19,"componentType":5126,"count":6,"type":"VEC3","max":[-0.29408490657806399,0.9557793140411377,0.0],"min":[-0.29408490657806399,0.9557793140411377,0.0]},{"bufferView":20,"componentType":5123,"count":6,"type":"SCALAR"},{"bufferView":21,"componentType":5126,"count":6,"type":"VEC3","max":[18.67959976196289,31.32670021057129,78.74015808105469],"min":[14.44629955291748,17.885900497436525,-39.370079040527347]},{"bufferView":22,"componentType":5126,"count":6,"type":"VEC3","max":[0.9538098573684692,0.3004109263420105,0.0],"min":[0.9538098573684692,0.3004109263420105,0.0]},{"bufferView":23,"componentType":5123,"count":6,"type":"SCALAR"},{"bufferView":24,"componentType":5126,"count":6,"type":"VEC3","max":[18.67959976196289,17.885900497436525,78.74015808105469],"min":[11.48289966583252,15.61050033569336,-39.370079040527347]},{"bufferView":25,"componentType":5126,"count":6,"type":"VEC3","max":[0.30146360397338869,-0.953477680683136,0.0],"min":[0.30146360397338869,-0.953477680683136,0.0]},{"bufferView":26,"componentType":5123,"count":6,"type":"SCALAR"},{"bufferView":27,"componentType":5126,"count":6,"type":"VEC3","max":[15.822099685668946,15.61050033569336,78.74015808105469],"min":[11.48289966583252,2.169600009918213,-39.370079040527347]},{"bufferView":28,"componentType":5126,"count":6,"type":"VEC3","max":[0.9516377449035645,0.307222455739975,0.0],"min":[0.9516377449035645,0.307222455739975,0.0]},{"bufferView":29,"componentType":5123,"count":6,"type":"SCALAR"},{"bufferView":30,"componentType":5126,"count":6,"type":"VEC3","max":[15.131888389587403,2.665069818496704,78.74015808105469],"min":[8.844735145568848,0.6353532671928406,-39.370079040527347]},{"bufferView":31,"componentType":5126,"count":6,"type":"VEC3","max":[-0.307222455739975,0.9516377449035645,0.0],"min":[-0.307222455739975,0.9516377449035645,0.0]},{"bufferView":32,"componentType":5123,"count":6,"type":"SCALAR"},{"bufferView":33,"componentType":5126,"count":6,"type":"VEC3","max":[15.131888389587403,15.93867015838623,78.74015808105469],"min":[10.846564292907715,2.665069818496704,-39.370079040527347]},{"bufferView":34,"componentType":5126,"count":6,"type":"VEC3","max":[-0.9516348838806152,-0.30723121762275698,0.0],"min":[-0.9516348838806152,-0.30723121762275698,0.0]},{"bufferView":35,"componentType":5123,"count":6,"type":"SCALAR"},{"bufferView":36,"componentType":5126,"count":6,"type":"VEC3","max":[18.04617691040039,18.21499252319336,78.74015808105469],"min":[10.846564292907715,15.93867015838623,-39.370079040527347]},{"bufferView":37,"componentType":5126,"count":6,"type":"VEC3","max":[-0.30146366357803347,0.953477680683136,0.0],"min":[-0.30146366357803347,0.953477680683136,0.0]},{"bufferView":38,"componentType":5123,"count":6,"type":"SCALAR"},{"bufferView":39,"componentType":5126,"count":6,"type":"VEC3","max":[18.04617691040039,30.68858528137207,78.74015808105469],"min":[14.102367401123047,18.21499252319336,-39.370079040527347]},{"bufferView":40,"componentType":5126,"count":6,"type":"VEC3","max":[-0.953477680683136,-0.30146366357803347,0.0],"min":[-0.953477680683136,-0.30146366357803347,0.0]},{"bufferView":41,"componentType":5123,"count":6,"type":"SCALAR"},{"bufferView":42,"componentType":5126,"count":6,"type":"VEC3","max":[14.102367401123047,30.68858528137207,78.74015808105469],"min":[0.5280398726463318,26.396753311157228,-39.370079040527347]},{"bufferView":43,"componentType":5126,"count":6,"type":"VEC3","max":[0.30146366357803347,-0.953477680683136,0.0],"min":[0.30146366357803347,-0.953477680683136,0.0]},{"bufferView":44,"componentType":5123,"count":6,"type":"SCALAR"},{"bufferView":45,"componentType":5126,"count":6,"type":"VEC3","max":[8.844735145568848,26.396753311157228,78.74015808105469],"min":[0.5280398726463318,0.6353532671928406,-39.370079040527347]},{"bufferView":46,"componentType":5126,"count":6,"type":"VEC3","max":[0.9516377449035645,0.307222455739975,0.0],"min":[0.9516377449035645,0.307222455739975,0.0]}],"bufferViews":[{"buffer":0,"byteOffset":0,"byteLength":74383},{"buffer":0,"byteOffset":74384,"byteLength":48,"target":34962},{"buffer":0,"byteOffset":74432,"byteLength":12,"target":34963},{"buffer":0,"byteOffset":74444,"byteLength":72,"target":34962},{"buffer":0,"byteOffset":74516,"byteLength":72,"target":34962},{"buffer":0,"byteOffset":74588,"byteLength":72,"target":34963},{"buffer":0,"byteOffset":74660,"byteLength":432,"target":34962},{"buffer":0,"byteOffset":75092,"byteLength":432,"target":34962},{"buffer":0,"byteOffset":75524,"byteLength":72,"target":34963},{"buffer":0,"byteOffset":75596,"byteLength":432,"target":34962},{"buffer":0,"byteOffset":76028,"byteLength":432,"target":34962},{"buffer":0,"byteOffset":76460,"byteLength":12,"target":34963},{"buffer":0,"byteOffset":76472,"byteLength":72,"target":34962},{"buffer":0,"byteOffset":76544,"byteLength":72,"target":34962},{"buffer":0,"byteOffset":76616,"byteLength":12,"target":34963},{"buffer":0,"byteOffset":76628,"byteLength":72,"target":34962},{"buffer":0,"byteOffset":76700,"byteLength":72,"target":34962},{"buffer":0,"byteOffset":76772,"byteLength":12,"target":34963},{"buffer":0,"byteOffset":76784,"byteLength":72,"target":34962},{"buffer":0,"byteOffset":76856,"byteLength":72,"target":34962},{"buffer":0,"byteOffset":76928,"byteLength":12,"target":34963},{"buffer":0,"byteOffset":76940,"byteLength":72,"target":34962},{"buffer":0,"byteOffset":77012,"byteLength":72,"target":34962},{"buffer":0,"byteOffset":77084,"byteLength":12,"target":34963},{"buffer":0,"byteOffset":77096,"byteLength":72,"target":34962},{"buffer":0,"byteOffset":77168,"byteLength":72,"target":34962},{"buffer":0,"byteOffset":77240,"byteLength":12,"target":34963},{"buffer":0,"byteOffset":77252,"byteLength":72,"target":34962},{"buffer":0,"byteOffset":77324,"byteLength":72,"target":34962},{"buffer":0,"byteOffset":77396,"byteLength":12,"target":34963},{"buffer":0,"byteOffset":77408,"byteLength":72,"target":34962},{"buffer":0,"byteOffset":77480,"byteLength":72,"target":34962},{"buffer":0,"byteOffset":77552,"byteLength":12,"target":34963},{"buffer":0,"byteOffset":77564,"byteLength":72,"target":34962},{"buffer":0,"byteOffset":77636,"byteLength":72,"target":34962},{"buffer":0,"byteOffset":77708,"byteLength":12,"target":34963},{"buffer":0,"byteOffset":77720,"byteLength":72,"target":34962},{"buffer":0,"byteOffset":77792,"byteLength":72,"target":34962},{"buffer":0,"byteOffset":77864,"byteLength":12,"target":34963},{"buffer":0,"byteOffset":77876,"byteLength":72,"target":34962},{"buffer":0,"byteOffset":77948,"byteLength":72,"target":34962},{"buffer":0,"byteOffset":78020,"byteLength":12,"target":34963},{"buffer":0,"byteOffset":78032,"byteLength":72,"target":34962},{"buffer":0,"byteOffset":78104,"byteLength":72,"target":34962},{"buffer":0,"byteOffset":78176,"byteLength":12,"target":34963},{"buffer":0,"byteOffset":78188,"byteLength":72,"target":34962},{"buffer":0,"byteOffset":78260,"byteLength":72,"target":34962}],"buffers":[{"byteLength":78332,"uri":"0.bin"}],"images":[{"name":"Location Snapshot.jpg","bufferView":0,"mimeType":"image/jpeg"}],"materials":[{"pbrMetallicRoughness":{"baseColorFactor":[0.4588235318660736,0.4470588266849518,0.41960784792900088,1.0],"baseColorTexture":{"index":0}},"name":"Location Snapshot","doubleSided":true},{"pbrMetallicRoughness":{"baseColorFactor":[0.9803921580314636,0.9803921580314636,0.9803921580314636,1.0]},"name":"default_face_material","doubleSided":true},{"pbrMetallicRoughness":{"baseColorFactor":[0.9803921580314636,0.9803921580314636,0.9803921580314636,1.0]},"name":"default_face_material1","doubleSided":true},{"pbrMetallicRoughness":{"baseColorFactor":[0.9803921580314636,0.9803921580314636,0.9803921580314636,1.0]},"name":"default_face_material2","doubleSided":true},{"pbrMetallicRoughness":{"baseColorFactor":[0.9803921580314636,0.9803921580314636,0.9803921580314636,1.0]},"name":"default_face_material3","doubleSided":true},{"pbrMetallicRoughness":{"baseColorFactor":[0.9803921580314636,0.9803921580314636,0.9803921580314636,1.0]},"name":"default_face_material4","doubleSided":true},{"pbrMetallicRoughness":{"baseColorFactor":[0.9803921580314636,0.9803921580314636,0.9803921580314636,1.0]},"name":"default_face_material5","doubleSided":true},{"pbrMetallicRoughness":{"baseColorFactor":[0.9803921580314636,0.9803921580314636,0.9803921580314636,1.0]},"name":"default_face_material6","doubleSided":true},{"pbrMetallicRoughness":{"baseColorFactor":[0.9803921580314636,0.9803921580314636,0.9803921580314636,1.0]},"name":"default_face_material7","doubleSided":true},{"pbrMetallicRoughness":{"baseColorFactor":[0.9803921580314636,0.9803921580314636,0.9803921580314636,1.0]},"name":"default_face_material8","doubleSided":true},{"pbrMetallicRoughness":{"baseColorFactor":[0.9803921580314636,0.9803921580314636,0.9803921580314636,1.0]},"name":"default_face_material9","doubleSided":true},{"pbrMetallicRoughness":{"baseColorFactor":[0.9803921580314636,0.9803921580314636,0.9803921580314636,1.0]},"name":"default_face_material10","doubleSided":true},{"pbrMetallicRoughness":{"baseColorFactor":[0.9803921580314636,0.9803921580314636,0.9803921580314636,1.0]},"name":"default_face_material11","doubleSided":true},{"pbrMetallicRoughness":{"baseColorFactor":[0.9803921580314636,0.9803921580314636,0.9803921580314636,1.0]},"name":"default_face_material12","doubleSided":true},{"pbrMetallicRoughness":{"baseColorFactor":[0.9803921580314636,0.9803921580314636,0.9803921580314636,1.0]},"name":"default_face_material13","doubleSided":true}],"meshes":[{"primitives":[{"attributes":{"NORMAL":3,"POSITION":2,"TEXCOORD_0":0},"indices":1,"material":0}]},{"primitives":[{"attributes":{"NORMAL":6,"POSITION":5},"indices":4,"material":1},{"attributes":{"POSITION":8,"NORMAL":9},"indices":7,"material":2},{"attributes":{"NORMAL":12,"POSITION":11},"indices":10,"material":3},{"attributes":{"POSITION":14,"NORMAL":15},"indices":13,"material":4},{"attributes":{"NORMAL":18,"POSITION":17},"indices":16,"material":5},{"attributes":{"NORMAL":21,"POSITION":20},"indices":19,"material":6},{"attributes":{"POSITION":23,"NORMAL":24},"indices":22,"material":7},{"attributes":{"POSITION":26,"NORMAL":27},"indices":25,"material":8},{"attributes":{"POSITION":29,"NORMAL":30},"indices":28,"material":9},{"attributes":{"NORMAL":33,"POSITION":32},"indices":31,"material":10},{"attributes":{"NORMAL":36,"POSITION":35},"indices":34,"material":11},{"attributes":{"NORMAL":39,"POSITION":38},"indices":37,"material":12},{"attributes":{"NORMAL":42,"POSITION":41},"indices":40,"material":13},{"attributes":{"POSITION":44,"NORMAL":45},"indices":43,"material":14}]}],"nodes":[{"mesh":0,"name":"29590"},{"matrix":[39.0,0.0,0.0,0.0,0.0,39.0,0.0,0.0,0.0,0.0,1.0,0.0,-364.1732177734375,-610.2362060546875,0.0,1.0],"mesh":1,"name":"44468"},{"children":[0,1],"matrix":[0.02539999969303608,0.0,0.0,0.0,0.0,0.0,-0.02539999969303608,0.0,0.0,0.02539999969303608,0.0,0.0,0.0,0.0,0.0,1.0],"name":"Root Node"}],"scenes":[{"nodes":[2]}],"textures":[{"source":0}],"scene":0}