{"accessors" : [{"bufferView" : 0, "byteOffset" : 0, "componentType" : 5123, "count" : 6, "type" : "SCALAR", "max" : [3], "min" : [0]}, {"bufferView" : 1, "byteOffset" : 0, "componentType" : 5126, "count" : 4, "type" : "VEC3", "max" : [7.5, 0.5002999901771545, 38.8125], "min" : [-1.875, 0.00029990001348778605, 28.875], "name" : "POSITION"}, {"bufferView" : 1, "byteOffset" : 12, "componentType" : 5126, "count" : 4, "type" : "VEC2", "max" : [-624.2849731445312, 1], "min" : [-1162.1500244140625, -18.684999465942383], "name" : "TEXCOORD_0"}, {"bufferView" : 1, "byteOffset" : 20, "componentType" : 5126, "count" : 4, "type" : "VEC3", "max" : [0.7273972630500793, 1.1867853572766762E-05, 0.6862230896949768], "min" : [0.7273972630500793, 1.1867853572766762E-05, 0.6862230896949768], "name" : "NORMAL"}, {"bufferView" : 0, "byteOffset" : 12, "componentType" : 5123, "count" : 6, "type" : "SCALAR", "max" : [3], "min" : [0]}, {"bufferView" : 2, "byteOffset" : 0, "componentType" : 5126, "count" : 4, "type" : "VEC3", "max" : [7.5, 0.5002999901771545, 28.875], "min" : [-4.316279955673963E-06, 0, -4.071960120199947E-06], "name" : "POSITION"}, {"bufferView" : 2, "byteOffset" : 12, "componentType" : 5126, "count" : 4, "type" : "VEC2", "max" : [0.00019788500503636897, 1], "min" : [-1174.530029296875, -18.696800231933594], "name" : "TEXCOORD_0"}, {"bufferView" : 2, "byteOffset" : 20, "componentType" : 5126, "count" : 4, "type" : "VEC3", "max" : [0.9678881168365479, 6.307966486929217E-06, -0.25139904022216797], "min" : [0.9678881168365479, 6.307966486929217E-06, -0.25139904022216797], "name" : "NORMAL"}, {"bufferView" : 0, "byteOffset" : 24, "componentType" : 5123, "count" : 6, "type" : "SCALAR", "max" : [3], "min" : [0]}, {"bufferView" : 3, "byteOffset" : 0, "componentType" : 5126, "count" : 4, "type" : "VEC3", "max" : [0, 0.5, 3.6095599657148683E-16], "min" : [-5.875, 0, -3.6875], "name" : "POSITION"}, {"bufferView" : 3, "byteOffset" : 12, "componentType" : 5126, "count" : 4, "type" : "VEC2", "max" : [273.08599853515625, 1], "min" : [-7.554750384032149E-15, -18.684999465942383], "name" : "TEXCOORD_0"}, {"bufferView" : 3, "byteOffset" : 20, "componentType" : 5126, "count" : 4, "type" : "VEC3", "max" : [0.531620442867279, -5.581475761573529E-06, -0.8469879031181335], "min" : [0.531620442867279, -5.581475761573529E-06, -0.8469879031181335], "name" : "NORMAL"}, {"bufferView" : 0, "byteOffset" : 36, "componentType" : 5123, "count" : 18, "type" : "SCALAR", "max" : [11], "min" : [0]}, {"bufferView" : 4, "byteOffset" : 0, "componentType" : 5126, "count" : 12, "type" : "VEC3", "max" : [7.5, 0.5002999901771545, 38.8125], "min" : [-5.875, 0, -3.6875], "name" : "POSITION"}, {"bufferView" : 4, "byteOffset" : 12, "componentType" : 5126, "count" : 12, "type" : "VEC2", "max" : [1514.4100341796875, 1529.050048828125], "min" : [-231.2989959716797, -144.177001953125], "name" : "TEXCOORD_0"}, {"bufferView" : 4, "byteOffset" : 20, "componentType" : 5126, "count" : 12, "type" : "VEC3", "max" : [4.707150765170809E-06, 1.0000044107437134, 0.09370392560958862], "min" : [-0.9956045746803284, 1.6118374333018437E-06, -8.143955710693263E-06], "name" : "NORMAL"}, {"bufferView" : 0, "byteOffset" : 72, "componentType" : 5123, "count" : 234, "type" : "SCALAR", "max" : [165], "min" : [0]}, {"bufferView" : 5, "byteOffset" : 0, "componentType" : 5126, "count" : 166, "type" : "VEC3", "max" : [-2.794490098953247, 1.5568499565124512, 13.034299850463867], "min" : [-4.223750114440918, 1.2696900367736816, 8.545530319213867], "name" : "POSITION"}, {"bufferView" : 5, "byteOffset" : 12, "componentType" : 5126, "count" : 166, "type" : "VEC2", "max" : [496.3550109863281, 195.97500610351562], "min" : [-513.6110229492188, -159.24400329589844], "name" : "TEXCOORD_0"}, {"bufferView" : 5, "byteOffset" : 20, "componentType" : 5126, "count" : 166, "type" : "VEC3", "max" : [0.9937876462936401, 0.9984874725341797, 0.9957016706466675], "min" : [-0.9937876462936401, -0.9984874725341797, -0.9952974319458008], "name" : "NORMAL"}, {"bufferView" : 0, "byteOffset" : 540, "componentType" : 5123, "count" : 234, "type" : "SCALAR", "max" : [165], "min" : [0]}, {"bufferView" : 6, "byteOffset" : 0, "componentType" : 5126, "count" : 166, "type" : "VEC3", "max" : [-3.7871499061584473, 2.59594988822937, 13.089900016784668], "min" : [-4.79511022567749, 1.5929900407791138, 8.642189979553223], "name" : "POSITION"}, {"bufferView" : 6, "byteOffset" : 12, "componentType" : 5126, "count" : 166, "type" : "VEC2", "max" : [496.72100830078125, 363.5979919433594], "min" : [-496.3080139160156, -317.0979919433594], "name" : "TEXCOORD_0"}, {"bufferView" : 6, "byteOffset" : 20, "componentType" : 5126, "count" : 166, "type" : "VEC3", "max" : [0.922269880771637, 0.9938182234764099, 0.9954756498336792], "min" : [-0.922269880771637, -0.926631510257721, -0.9952974319458008], "name" : "NORMAL"}, {"bufferView" : 0, "byteOffset" : 1008, "componentType" : 5123, "count" : 132, "type" : "SCALAR", "max" : [59], "min" : [0]}, {"bufferView" : 7, "byteOffset" : 0, "componentType" : 5126, "count" : 60, "type" : "VEC3", "max" : [-3.184230089187622, 2.486330032348633, 9.601030349731445], "min" : [-4.823890209197998, 1.1469000577926636, 9.0587797164917], "name" : "POSITION"}, {"bufferView" : 7, "byteOffset" : 12, "componentType" : 5126, "count" : 60, "type" : "VEC2", "max" : [357.9530029296875, 203.00399780273438], "min" : [-357.9530029296875, -169.18600463867188], "name" : "TEXCOORD_0"}, {"bufferView" : 7, "byteOffset" : 20, "componentType" : 5126, "count" : 60, "type" : "VEC3", "max" : [0.9945156574249268, 0.998634934425354, 0.9952974319458008], "min" : [-0.9945156574249268, -0.998634934425354, -0.9952974319458008], "name" : "NORMAL"}, {"bufferView" : 0, "byteOffset" : 1272, "componentType" : 5123, "count" : 36, "type" : "SCALAR", "max" : [23], "min" : [0]}, {"bufferView" : 8, "byteOffset" : 0, "componentType" : 5126, "count" : 24, "type" : "VEC3", "max" : [-2.764970064163208, 1.5726799964904785, 8.712900161743164], "min" : [-3.6343400478363037, 0.4810220003128052, 8.470120429992676], "name" : "POSITION"}, {"bufferView" : 8, "byteOffset" : 12, "componentType" : 5126, "count" : 24, "type" : "VEC2", "max" : [327.6059875488281, 170.63999938964844], "min" : [-327.6059875488281, -139.38800048828125], "name" : "TEXCOORD_0"}, {"bufferView" : 8, "byteOffset" : 20, "componentType" : 5126, "count" : 24, "type" : "VEC3", "max" : [0.8623828291893005, 0.9968495965003967, 0.9952974319458008], "min" : [-0.8623828291893005, -0.9968495965003967, -0.9952974319458008], "name" : "NORMAL"}, {"bufferView" : 0, "byteOffset" : 1344, "componentType" : 5123, "count" : 36, "type" : "SCALAR", "max" : [23], "min" : [0]}, {"bufferView" : 9, "byteOffset" : 0, "componentType" : 5126, "count" : 24, "type" : "VEC3", "max" : [-2.3480899333953857, 1.5726799964904785, 12.99429988861084], "min" : [-3.2174599170684814, 0.4810200035572052, 12.751500129699707], "name" : "POSITION"}, {"bufferView" : 9, "byteOffset" : 12, "componentType" : 5126, "count" : 24, "type" : "VEC2", "max" : [496.9630126953125, 170.64100646972656], "min" : [-496.9630126953125, -139.38800048828125], "name" : "TEXCOORD_0"}, {"bufferView" : 9, "byteOffset" : 20, "componentType" : 5126, "count" : 24, "type" : "VEC3", "max" : [0.8623828291893005, 0.9968495965003967, 0.9952974319458008], "min" : [-0.8623828291893005, -0.9968495965003967, -0.9952974319458008], "name" : "NORMAL"}, {"bufferView" : 0, "byteOffset" : 1416, "componentType" : 5123, "count" : 36, "type" : "SCALAR", "max" : [23], "min" : [0]}, {"bufferView" : 10, "byteOffset" : 0, "componentType" : 5126, "count" : 24, "type" : "VEC3", "max" : [-3.843669891357422, 1.5726799964904785, 8.817930221557617], "min" : [-4.713039875030518, 0.4810220003128052, 8.575149536132812], "name" : "POSITION"}, {"bufferView" : 10, "byteOffset" : 12, "componentType" : 5126, "count" : 24, "type" : "VEC2", "max" : [327.60699462890625, 92.63390350341797], "min" : [-327.60699462890625, -217.58799743652344], "name" : "TEXCOORD_0"}, {"bufferView" : 10, "byteOffset" : 20, "componentType" : 5126, "count" : 24, "type" : "VEC3", "max" : [0.8623823523521423, 0.996849536895752, 0.9952974319458008], "min" : [-0.8623823523521423, -0.996849536895752, -0.9952974319458008], "name" : "NORMAL"}, {"bufferView" : 0, "byteOffset" : 1488, "componentType" : 5123, "count" : 132, "type" : "SCALAR", "max" : [71], "min" : [0]}, {"bufferView" : 11, "byteOffset" : 0, "componentType" : 5126, "count" : 72, "type" : "VEC3", "max" : [-3.0387001037597656, 2.486330032348633, 11.09570026397705], "min" : [-4.6783599853515625, 1.1469000577926636, 10.553400039672852], "name" : "POSITION"}, {"bufferView" : 11, "byteOffset" : 12, "componentType" : 5126, "count" : 72, "type" : "VEC2", "max" : [417.0740051269531, 203.00399780273438], "min" : [-417.0740051269531, -169.18600463867188], "name" : "TEXCOORD_0"}, {"bufferView" : 11, "byteOffset" : 20, "componentType" : 5126, "count" : 72, "type" : "VEC3", "max" : [0.9945156574249268, 0.998634934425354, 0.9952974319458008], "min" : [-0.9945156574249268, -0.998634934425354, -0.9952974915504456], "name" : "NORMAL"}, {"bufferView" : 0, "byteOffset" : 1752, "componentType" : 5123, "count" : 132, "type" : "SCALAR", "max" : [59], "min" : [0]}, {"bufferView" : 12, "byteOffset" : 0, "componentType" : 5126, "count" : 60, "type" : "VEC3", "max" : [-2.8999900817871094, 2.486330032348633, 12.5201997756958], "min" : [-4.539649963378906, 1.1469000577926636, 11.977999687194824], "name" : "POSITION"}, {"bufferView" : 12, "byteOffset" : 12, "componentType" : 5126, "count" : 60, "type" : "VEC2", "max" : [473.42498779296875, 203.0050048828125], "min" : [-473.42498779296875, -169.18600463867188], "name" : "TEXCOORD_0"}, {"bufferView" : 12, "byteOffset" : 20, "componentType" : 5126, "count" : 60, "type" : "VEC3", "max" : [0.9945156574249268, 0.998634934425354, 0.9952974319458008], "min" : [-0.9945156574249268, -0.998634934425354, -0.9952974319458008], "name" : "NORMAL"}, {"bufferView" : 0, "byteOffset" : 2016, "componentType" : 5123, "count" : 36, "type" : "SCALAR", "max" : [23], "min" : [0]}, {"bufferView" : 13, "byteOffset" : 0, "componentType" : 5126, "count" : 24, "type" : "VEC3", "max" : [-3.4267899990081787, 1.5726799964904785, 13.09939956665039], "min" : [-4.2961602210998535, 0.4810200035572052, 12.856599807739258], "name" : "POSITION"}, {"bufferView" : 13, "byteOffset" : 12, "componentType" : 5126, "count" : 24, "type" : "VEC2", "max" : [496.9639892578125, 92.63400268554688], "min" : [-496.9639892578125, -217.58700561523438], "name" : "TEXCOORD_0"}, {"bufferView" : 13, "byteOffset" : 20, "componentType" : 5126, "count" : 24, "type" : "VEC3", "max" : [0.8623823523521423, 0.996849536895752, 0.9952974319458008], "min" : [-0.8623823523521423, -0.996849536895752, -0.9952974319458008], "name" : "NORMAL"}], "asset" : {"generator" : "Aspose.3D 24.6.0", "version" : "2.0"}, "buffers" : [{"uri" : "data:application/octet-stream;base64,", "byteLength" : 22752}], "bufferViews" : [{"buffer" : 0, "byteOffset" : 0, "byteLength" : 2088, "target" : 34963}, {"buffer" : 0, "byteOffset" : 2092, "byteLength" : 128, "byteStride" : 32, "target" : 34962}, {"buffer" : 0, "byteOffset" : 2224, "byteLength" : 128, "byteStride" : 32, "target" : 34962}, {"buffer" : 0, "byteOffset" : 2356, "byteLength" : 128, "byteStride" : 32, "target" : 34962}, {"buffer" : 0, "byteOffset" : 2488, "byteLength" : 384, "byteStride" : 32, "target" : 34962}, {"buffer" : 0, "byteOffset" : 2876, "byteLength" : 5312, "byteStride" : 32, "target" : 34962}, {"buffer" : 0, "byteOffset" : 8192, "byteLength" : 5312, "byteStride" : 32, "target" : 34962}, {"buffer" : 0, "byteOffset" : 13508, "byteLength" : 1920, "byteStride" : 32, "target" : 34962}, {"buffer" : 0, "byteOffset" : 15432, "byteLength" : 768, "byteStride" : 32, "target" : 34962}, {"buffer" : 0, "byteOffset" : 16204, "byteLength" : 768, "byteStride" : 32, "target" : 34962}, {"buffer" : 0, "byteOffset" : 16976, "byteLength" : 768, "byteStride" : 32, "target" : 34962}, {"buffer" : 0, "byteOffset" : 17748, "byteLength" : 2304, "byteStride" : 32, "target" : 34962}, {"buffer" : 0, "byteOffset" : 20056, "byteLength" : 1920, "byteStride" : 32, "target" : 34962}, {"buffer" : 0, "byteOffset" : 21980, "byteLength" : 768, "byteStride" : 32, "target" : 34962}], "materials" : [{"name" : "FrontColor", "pbrMetallicRoughness" : {"baseColorFactor" : [1, 1, 1, 1], "metallicFactor" : 1, "roughnessFactor" : 1}, "emissiveFactor" : [0, 0, 0], "alphaMode" : "OPAQUE", "doubleSided" : false}, {"name" : "_1", "pbrMetallicRoughness" : {"baseColorFactor" : [0.407843, 0.756863, 0.427451, 1], "metallicFactor" : 1, "roughnessFactor" : 1}, "emissiveFactor" : [0, 0, 0], "alphaMode" : "OPAQUE", "doubleSided" : false}, {"name" : "_auto_20", "pbrMetallicRoughness" : {"baseColorFactor" : [0.741176, 0.501961, 0.337255, 1], "metallicFactor" : 1, "roughnessFactor" : 1}, "emissiveFactor" : [0, 0, 0], "alphaMode" : "OPAQUE", "doubleSided" : false}], "meshes" : [{"primitives" : [{"attributes" : {"POSITION" : 1, "TEXCOORD_0" : 2, "NORMAL" : 3}, "indices" : 0, "material" : 0, "mode" : 4}, {"attributes" : {"POSITION" : 5, "TEXCOORD_0" : 6, "NORMAL" : 7}, "indices" : 4, "material" : 1, "mode" : 4}, {"attributes" : {"POSITION" : 9, "TEXCOORD_0" : 10, "NORMAL" : 11}, "indices" : 8, "material" : 0, "mode" : 4}, {"attributes" : {"POSITION" : 13, "TEXCOORD_0" : 14, "NORMAL" : 15}, "indices" : 12, "material" : 1, "mode" : 4}], "name" : ""}, {"primitives" : [{"attributes" : {"POSITION" : 17, "TEXCOORD_0" : 18, "NORMAL" : 19}, "indices" : 16, "material" : 2, "mode" : 4}], "name" : ""}, {"primitives" : [{"attributes" : {"POSITION" : 21, "TEXCOORD_0" : 22, "NORMAL" : 23}, "indices" : 20, "mode" : 4}], "name" : ""}, {"primitives" : [{"attributes" : {"POSITION" : 25, "TEXCOORD_0" : 26, "NORMAL" : 27}, "indices" : 24, "mode" : 4}], "name" : ""}, {"primitives" : [{"attributes" : {"POSITION" : 29, "TEXCOORD_0" : 30, "NORMAL" : 31}, "indices" : 28, "mode" : 4}], "name" : ""}, {"primitives" : [{"attributes" : {"POSITION" : 33, "TEXCOORD_0" : 34, "NORMAL" : 35}, "indices" : 32, "mode" : 4}], "name" : ""}, {"primitives" : [{"attributes" : {"POSITION" : 37, "TEXCOORD_0" : 38, "NORMAL" : 39}, "indices" : 36, "mode" : 4}], "name" : ""}, {"primitives" : [{"attributes" : {"POSITION" : 41, "TEXCOORD_0" : 42, "NORMAL" : 43}, "indices" : 40, "mode" : 4}], "name" : ""}, {"primitives" : [{"attributes" : {"POSITION" : 45, "TEXCOORD_0" : 46, "NORMAL" : 47}, "indices" : 44, "mode" : 4}], "name" : ""}, {"primitives" : [{"attributes" : {"POSITION" : 49, "TEXCOORD_0" : 50, "NORMAL" : 51}, "indices" : 48, "mode" : 4}], "name" : ""}], "nodes" : [{"mesh" : 0, "name" : "Mesh1 Model"}, {"mesh" : 1, "name" : "Mesh2 Model"}, {"mesh" : 2, "name" : "Mesh3 Model"}, {"mesh" : 3, "name" : "Mesh4 Model"}, {"mesh" : 4, "name" : "Mesh5 Model"}, {"mesh" : 5, "name" : "Mesh6 Model"}, {"mesh" : 6, "name" : "Mesh7 Model"}, {"mesh" : 7, "name" : "Mesh8 Model"}, {"mesh" : 8, "name" : "Mesh9 Model"}, {"mesh" : 9, "name" : "Mesh10 Model"}], "scene" : 0, "scenes" : [{"nodes" : [0, 1, 2, 3, 4, 5, 6, 7, 8, 9]}]}