{
    "asset" : {
        "generator" : "Khronos glTF Blender I/O v1.7.33",
        "version" : "2.0"
    },
    "extensionsUsed" : [
        "KHR_materials_transmission"
    ],
    "scene" : 0,
    "scenes" : [
        {
            "name" : "Scene",
            "nodes" : [
                0,
                1
            ]
        }
    ],
    "nodes" : [
        {
            "mesh" : 0,
            "name" : "metal"
        },
        {
            "mesh" : 1,
            "name" : "glass",
            "translation" : [
                0,
                -0.008452102541923523,
                0
            ]
        }
    ],
    "materials" : [
        {
            "doubleSided" : true,
            "name" : "metal",
            "pbrMetallicRoughness" : {
                "baseColorFactor" : [
                    0.8858397603034973,
                    0.44157710671424866,
                    0.13988998532295227,
                    1
                ],
                "roughnessFactor" : 0.19901719689369202
            }
        },
        {
            "alphaMode" : "BLEND",
            "doubleSided" : true,
            "extensions" : {
                "KHR_materials_transmission" : {
                    "transmissionFactor" : 1
                }
            },
            "name" : "glass",
            "pbrMetallicRoughness" : {
                "baseColorFactor" : [
                    0.9130189418792725,
                    0.9130189418792725,
                    0.9130189418792725,
                    0.699999988079071
                ],
                "metallicFactor" : 0,
                "roughnessFactor" : 0
            }
        }
    ],
    "meshes" : [
        {
            "name" : "Circle.001",
            "primitives" : [
                {
                    "attributes" : {
                        "POSITION" : 0,
                        "NORMAL" : 1,
                        "TEXCOORD_0" : 2
                    },
                    "indices" : 3,
                    "material" : 0
                }
            ]
        },
        {
            "name" : "Circle.002",
            "primitives" : [
                {
                    "attributes" : {
                        "POSITION" : 4,
                        "NORMAL" : 5,
                        "TEXCOORD_0" : 6
                    },
                    "indices" : 7,
                    "material" : 1
                }
            ]
        }
    ],
    "accessors" : [
        {
            "bufferView" : 0,
            "componentType" : 5126,
            "count" : 4464,
            "max" : [
                0.052151262760162354,
                0.573910653591156,
                0.05217527225613594
            ],
            "min" : [
                -0.05219928175210953,
                -0.6491996645927429,
                -0.05217529088258743
            ],
            "type" : "VEC3"
        },
        {
            "bufferView" : 1,
            "componentType" : 5126,
            "count" : 4464,
            "type" : "VEC3"
        },
        {
            "bufferView" : 2,
            "componentType" : 5126,
            "count" : 4464,
            "type" : "VEC2"
        },
        {
            "bufferView" : 3,
            "componentType" : 5123,
            "count" : 25344,
            "type" : "SCALAR"
        },
        {
            "bufferView" : 4,
            "componentType" : 5126,
            "count" : 1490,
            "max" : [
                0.03111988678574562,
                -0.6297651529312134,
                0.03114393725991249
            ],
            "min" : [
                -0.031167984008789062,
                -0.6401407122612,
                -0.031143933534622192
            ],
            "type" : "VEC3"
        },
        {
            "bufferView" : 5,
            "componentType" : 5126,
            "count" : 1490,
            "type" : "VEC3"
        },
        {
            "bufferView" : 6,
            "componentType" : 5126,
            "count" : 1490,
            "type" : "VEC2"
        },
        {
            "bufferView" : 7,
            "componentType" : 5123,
            "count" : 8928,
            "type" : "SCALAR"
        }
    ],
    "bufferViews" : [
        {
            "buffer" : 0,
            "byteLength" : 53568,
            "byteOffset" : 0
        },
        {
            "buffer" : 0,
            "byteLength" : 53568,
            "byteOffset" : 53568
        },
        {
            "buffer" : 0,
            "byteLength" : 35712,
            "byteOffset" : 107136
        },
        {
            "buffer" : 0,
            "byteLength" : 50688,
            "byteOffset" : 142848
        },
        {
            "buffer" : 0,
            "byteLength" : 17880,
            "byteOffset" : 193536
        },
        {
            "buffer" : 0,
            "byteLength" : 17880,
            "byteOffset" : 211416
        },
        {
            "buffer" : 0,
            "byteLength" : 11920,
            "byteOffset" : 229296
        },
        {
            "buffer" : 0,
            "byteLength" : 17856,
            "byteOffset" : 241216
        }
    ],
    "buffers" : [
        {
            "byteLength" : 259072,
            "uri" : "data:application/octet-stream;base64,"
        }
    ]
}
